<svg xmlns="http://www.w3.org/2000/svg" viewBox="0 0 64 64"><defs><style>.cls-1{isolation:isolate;}.cls-2{fill:#ff9700;}.cls-3{fill:#898989;}.cls-4{fill:none;stroke:#000;stroke-linecap:round;stroke-linejoin:round;stroke-width:2px;}.cls-5{opacity:0.25;mix-blend-mode:multiply;}.cls-6,.cls-7{mix-blend-mode:overlay;}.cls-7{fill:#fff;}</style></defs><title>Icon Color</title><g class="cls-1"><g id="Layer_1" data-name="Layer 1"><g id="Vector"><polygon class="cls-2" points="38.38 30.34 32.51 34.51 29.17 36.88 4.41 54.45 18.62 36.88 0.68 36.88 5.98 30.34 12.54 22.25 20.2 12.78 34.65 12.78 26.99 22.25 20.43 30.34 38.38 30.34"/><path class="cls-3" d="M56.12,54.45c-2.43,0-4.55-.63-5.93-2.85-.47-.76-.59-1.46.09-2.09s1.4-1.2,2.4-.59a10.32,10.32,0,0,1,1.12.74,3,3,0,0,0,4.19.05c1.09-.94,1.87-2.13,1.26-3.55a3.75,3.75,0,0,0-3.69-2.56c-4.57,0-9.15,0-13.72,0-1.44,0-2.76-.34-2.78-1.94s1.26-2,2.72-2c4.82,0,9.65,0,14.48,0,4.14,0,7.1,3.25,7.06,7.55A7,7,0,0,1,56.12,54.45Z"/><path class="cls-3" d="M56.12,9.55c-2.43,0-4.55.63-5.93,2.85-.47.76-.59,1.46.09,2.09s1.4,1.2,2.4.59a10.32,10.32,0,0,0,1.12-.74A3,3,0,0,1,58,14.29c1.09.94,1.87,2.13,1.26,3.55a3.75,3.75,0,0,1-3.69,2.56c-4.57,0-9.15,0-13.72,0-1.44,0-2.76.34-2.78,1.94s1.26,2,2.72,2c4.82,0,9.65,0,14.48,0,4.14,0,7.1-3.25,7.06-7.55A7,7,0,0,0,56.12,9.55Z"/><rect class="cls-3" x="42.47" y="29.8" width="17.44" height="4.32" rx="1.98"/></g><g id="Line"><polygon class="cls-4" points="38.38 30.34 32.51 34.51 29.17 36.88 4.41 54.45 18.62 36.88 0.68 36.88 5.98 30.34 12.54 22.25 20.2 12.78 34.65 12.78 26.99 22.25 20.43 30.34 38.38 30.34"/><path class="cls-4" d="M56.12,54.45c-2.43,0-4.55-.63-5.93-2.85-.47-.76-.59-1.46.09-2.09s1.4-1.2,2.4-.59a10.32,10.32,0,0,1,1.12.74,3,3,0,0,0,4.19.05c1.09-.94,1.87-2.13,1.26-3.55a3.75,3.75,0,0,0-3.69-2.56c-4.57,0-9.15,0-13.72,0-1.44,0-2.76-.34-2.78-1.94s1.26-2,2.72-2c4.82,0,9.65,0,14.48,0,4.14,0,7.1,3.25,7.06,7.55A7,7,0,0,1,56.12,54.45Z"/><path class="cls-4" d="M56.12,9.55c-2.43,0-4.55.63-5.93,2.85-.47.76-.59,1.46.09,2.09s1.4,1.2,2.4.59a10.32,10.32,0,0,0,1.12-.74A3,3,0,0,1,58,14.29c1.09.94,1.87,2.13,1.26,3.55a3.75,3.75,0,0,1-3.69,2.56c-4.57,0-9.15,0-13.72,0-1.44,0-2.76.34-2.78,1.94s1.26,2,2.72,2c4.82,0,9.65,0,14.48,0,4.14,0,7.1-3.25,7.06-7.55A7,7,0,0,0,56.12,9.55Z"/><rect class="cls-4" x="42.47" y="29.8" width="17.44" height="4.32" rx="1.98"/></g><g id="Shadow" class="cls-5"><path d="M44.45,34.12h5a2,2,0,0,1-2-2v-.35a2,2,0,0,1,2-2h-5a2,2,0,0,0-1.35.54h.28l-.64.45a2,2,0,0,0-.27,1v.35A2,2,0,0,0,44.45,34.12Z"/><path d="M44.06,22.31c0-1.53,1.23-1.91,2.6-1.93H41.84c-1.44,0-2.76.34-2.78,1.94s1.26,2,2.72,2h4.89C45.26,24.29,44,23.85,44.06,22.31Z"/><path d="M56.29,52.89a5.84,5.84,0,0,1-1.1-1.29,1.86,1.86,0,0,1-.36-1.32,4.86,4.86,0,0,1-1-.62,10.32,10.32,0,0,0-1.12-.74c-1-.61-1.73,0-2.4.59s-.56,1.33-.09,2.09c1.38,2.22,3.5,2.83,5.93,2.85l.48,0C56.47,53.9,56.38,53.4,56.29,52.89Z"/><path d="M44.06,41.69c0-1.54,1.2-2,2.61-2-1.63,0-3.26,0-4.89,0-1.46,0-2.74.42-2.72,2s1.34,2,2.78,1.94h4.82C45.29,43.6,44.08,43.22,44.06,41.69Z"/><polygon points="10.98 30.34 17.54 22.25 25.2 12.78 20.2 12.78 12.54 22.25 5.98 30.34 0.68 36.88 5.68 36.88 10.98 30.34"/></g><g id="Highligth" class="cls-6"><path class="cls-7" d="M50.77,20.39c-3,0-6,0-8.93,0h-.18c3,0,5.93,0,8.9,0Z"/><path class="cls-7" d="M52.92,34.12h5a2,2,0,0,0,2-2v-.35a2,2,0,0,0-2-2h-5a2,2,0,0,1,2,2v.35A2,2,0,0,1,52.92,34.12Z"/><polygon class="cls-7" points="29.65 12.78 21.99 22.25 15.43 30.34 20.43 30.34 26.99 22.25 34.65 12.78 29.65 12.78"/><path class="cls-7" d="M52.68,48.92c-1-.61-1.73,0-2.4.59a1.45,1.45,0,0,0-.45.77A2.81,2.81,0,0,0,53,49.71c.13-.12.26-.23.38-.36Z"/><path class="cls-7" d="M38.1,30.34H33.38l-5.87,4.17-3.34,2.38-13,9.23L4.41,54.45,29.17,36.89l3.34-2.38,5.23-3.72A2.22,2.22,0,0,1,38.1,30.34Z"/><path class="cls-7" d="M56.12,9.55a9.72,9.72,0,0,0-2.69.36,6.87,6.87,0,0,1,4.44,4.3l.12.08c1.09.94,1.87,2.13,1.26,3.55a4.34,4.34,0,0,1-1.44,1.9,6.88,6.88,0,0,1-6.55,4.54c-3.19,0-6.39,0-9.59,0h.11c4.82,0,9.65,0,14.48,0,4.14,0,7.1-3.25,7.06-7.55A7,7,0,0,0,56.12,9.55Z"/><path class="cls-7" d="M56.26,39.72c-4.83-.06-9.66,0-14.48,0h-.11c3.2,0,6.4,0,9.59,0a6.88,6.88,0,0,1,6.55,4.54,4.34,4.34,0,0,1,1.44,1.9c.61,1.42-.17,2.61-1.26,3.55l-.12.08a6.87,6.87,0,0,1-4.44,4.3,9.72,9.72,0,0,0,2.69.36,7,7,0,0,0,7.2-7.18C63.36,43,60.4,39.76,56.26,39.72Z"/><path class="cls-7" d="M50.56,43.6c-3,0-5.93,0-8.9,0h.18c3,0,5.95,0,8.93,0Z"/></g></g></g></svg>