<svg xmlns="http://www.w3.org/2000/svg" viewBox="0 0 64 64"><defs><style>.cls-1{isolation:isolate;}.cls-2{fill:#fb0;}.cls-3{fill:#e2e2e2;}.cls-4{fill:none;stroke:#000;stroke-linecap:round;stroke-linejoin:round;stroke-width:2px;}.cls-5{opacity:0.25;mix-blend-mode:multiply;}.cls-6,.cls-7{mix-blend-mode:overlay;}.cls-7{fill:#fff;}</style></defs><title>Icon Color</title><g class="cls-1"><g id="Layer_1" data-name="Layer 1"><g id="Vector"><path class="cls-2" d="M61.18,32.56a17.21,17.21,0,0,1-4.88,6.22,11.09,11.09,0,0,0-4.8-1.1,10.85,10.85,0,0,0-4.51,1A10.32,10.32,0,0,0,45.6,37,10.83,10.83,0,0,0,38,33.92a11,11,0,0,0-3.1.44A11.24,11.24,0,0,0,28.2,27c-.05-.55-.08-1.11-.08-1.67A17.33,17.33,0,0,1,42.74,8.18,17.34,17.34,0,0,0,61.18,32.56Z"/><path class="cls-3" d="M60.68,54.57h0a2.77,2.77,0,0,1-2.35,1.24H5.71a2.84,2.84,0,0,1-2.42-1.31,11.26,11.26,0,0,1-1.66-5.89,10.74,10.74,0,0,1,.19-2.06,11.2,11.2,0,0,1,11-9.18A11.24,11.24,0,0,1,24.07,26.17a11.29,11.29,0,0,1,2.42.26h0A10.91,10.91,0,0,1,28.2,27a11.24,11.24,0,0,1,6.69,7.4,11,11,0,0,1,3.1-.44A10.83,10.83,0,0,1,45.6,37,10.32,10.32,0,0,1,47,38.65a10.85,10.85,0,0,1,4.51-1,11.09,11.09,0,0,1,4.8,1.1,10.94,10.94,0,0,1,6,7.78A11.93,11.93,0,0,1,60.68,54.57Z"/><path class="cls-2" d="M34.78,47.79A1.67,1.67,0,0,0,36,47.35a1.55,1.55,0,0,0,.43-1.21H40A4.42,4.42,0,0,1,39.64,48a4.3,4.3,0,0,1-1.08,1.45,5,5,0,0,1-1.64.93,6.75,6.75,0,0,1-4.56-.14A5.11,5.11,0,0,1,30.56,49a5.7,5.7,0,0,1-1.08-2,8.13,8.13,0,0,1-.36-2.46v-.26a8.19,8.19,0,0,1,.36-2.47,5.46,5.46,0,0,1,1.08-2,4.91,4.91,0,0,1,1.78-1.31,6.06,6.06,0,0,1,2.5-.48,6.44,6.44,0,0,1,2.11.33,4.7,4.7,0,0,1,1.64,1,4.33,4.33,0,0,1,1.06,1.54A5.48,5.48,0,0,1,40,43H36.45a3.13,3.13,0,0,0-.09-.77,1.77,1.77,0,0,0-.31-.63,1.58,1.58,0,0,0-.54-.42,1.81,1.81,0,0,0-.76-.15,1.6,1.6,0,0,0-1,.26,1.74,1.74,0,0,0-.55.72A3.38,3.38,0,0,0,33,43q-.06.6-.06,1.26v.26A12.59,12.59,0,0,0,33,45.79a3.38,3.38,0,0,0,.25,1,1.63,1.63,0,0,0,.56.7A1.68,1.68,0,0,0,34.78,47.79Z"/><circle class="cls-2" cx="26.16" cy="38.95" r="2.19"/></g><g id="Line"><path class="cls-4" d="M61.18,32.56a17.21,17.21,0,0,1-4.88,6.22,11.09,11.09,0,0,0-4.8-1.1,10.85,10.85,0,0,0-4.51,1A10.32,10.32,0,0,0,45.6,37,10.83,10.83,0,0,0,38,33.92a11,11,0,0,0-3.1.44A11.24,11.24,0,0,0,28.2,27c-.05-.55-.08-1.11-.08-1.67A17.33,17.33,0,0,1,42.74,8.18,17.34,17.34,0,0,0,61.18,32.56Z"/><path class="cls-4" d="M60.68,54.57h0a2.77,2.77,0,0,1-2.35,1.24H5.71a2.84,2.84,0,0,1-2.42-1.31,11.26,11.26,0,0,1-1.66-5.89,10.74,10.74,0,0,1,.19-2.06,11.2,11.2,0,0,1,11-9.18A11.24,11.24,0,0,1,24.07,26.17a11.29,11.29,0,0,1,2.42.26h0A10.91,10.91,0,0,1,28.2,27a11.24,11.24,0,0,1,6.69,7.4,11,11,0,0,1,3.1-.44A10.83,10.83,0,0,1,45.6,37,10.32,10.32,0,0,1,47,38.65a10.85,10.85,0,0,1,4.51-1,11.09,11.09,0,0,1,4.8,1.1,10.94,10.94,0,0,1,6,7.78A11.93,11.93,0,0,1,60.68,54.57Z"/><path class="cls-4" d="M34.78,47.79A1.67,1.67,0,0,0,36,47.35a1.55,1.55,0,0,0,.43-1.21H40A4.42,4.42,0,0,1,39.64,48a4.3,4.3,0,0,1-1.08,1.45,5,5,0,0,1-1.64.93,6.75,6.75,0,0,1-4.56-.14A5.11,5.11,0,0,1,30.56,49a5.7,5.7,0,0,1-1.08-2,8.13,8.13,0,0,1-.36-2.46v-.26a8.19,8.19,0,0,1,.36-2.47,5.46,5.46,0,0,1,1.08-2,4.91,4.91,0,0,1,1.78-1.31,6.06,6.06,0,0,1,2.5-.48,6.44,6.44,0,0,1,2.11.33,4.7,4.7,0,0,1,1.64,1,4.33,4.33,0,0,1,1.06,1.54A5.48,5.48,0,0,1,40,43H36.45a3.13,3.13,0,0,0-.09-.77,1.77,1.77,0,0,0-.31-.63,1.58,1.58,0,0,0-.54-.42,1.81,1.81,0,0,0-.76-.15,1.6,1.6,0,0,0-1,.26,1.74,1.74,0,0,0-.55.72A3.38,3.38,0,0,0,33,43q-.06.6-.06,1.26v.26A12.59,12.59,0,0,0,33,45.79a3.38,3.38,0,0,0,.25,1,1.63,1.63,0,0,0,.56.7A1.68,1.68,0,0,0,34.78,47.79Z"/><circle class="cls-4" cx="26.16" cy="38.95" r="2.19"/></g><g id="Shadow" class="cls-5"><path d="M1.82,46.56a10.74,10.74,0,0,0-.19,2.06,11.26,11.26,0,0,0,1.66,5.89,2.84,2.84,0,0,0,2.42,1.31h5a2.84,2.84,0,0,1-2.42-1.31,11.26,11.26,0,0,1-1.66-5.89,10.74,10.74,0,0,1,.19-2.06,11.2,11.2,0,0,1,11-9.18,11.16,11.16,0,0,1,3.51-8.13,11,11,0,0,1,5.21-2.79l-.07,0h0a11.29,11.29,0,0,0-2.42-.26A11.24,11.24,0,0,0,12.84,37.38,11.2,11.2,0,0,0,1.82,46.56Z"/><path d="M42,10.18a15,15,0,0,1,.76-2A17.33,17.33,0,0,0,28.12,25.29c0,.31,0,.62,0,.92.66,0,.88.15.92.29s-.07.32,0,.44a.39.39,0,0,0,.32.08l.88.32A2.29,2.29,0,0,0,31,28.56a2.49,2.49,0,0,0,2.13.47,28.75,28.75,0,0,1,0-3.74C33.27,22.82,33.7,20.85,42,10.18Z"/></g><g id="Highligth" class="cls-6"><path class="cls-7" d="M41.15,15.44a17.28,17.28,0,0,1,1.59-7.26,16.93,16.93,0,0,0-5.76,2A17.3,17.3,0,0,0,53.47,32.77,17.79,17.79,0,0,0,56,32.58,17.32,17.32,0,0,1,41.15,15.44Z"/><path class="cls-7" d="M61.18,32.56a16.71,16.71,0,0,1-5,0,17.21,17.21,0,0,1-4.86,6.18,10.94,10.94,0,0,1,6,7.78,11.93,11.93,0,0,1-1.57,8h0a2.77,2.77,0,0,1-2.35,1.24h5a2.77,2.77,0,0,0,2.35-1.24h0a11.93,11.93,0,0,0,1.57-8,10.94,10.94,0,0,0-6-7.78A17.21,17.21,0,0,0,61.18,32.56Z"/><path class="cls-7" d="M23.2,27c0-.25,0-.5,0-.75a12.11,12.11,0,0,0-1.6.25A11.13,11.13,0,0,1,23.2,27Z"/></g></g></g></svg>